<svg width="59" height="59" viewBox="0 0 59 59" fill="none" xmlns="http://www.w3.org/2000/svg">
<g clip-path="url(#clip0_64_383)">
<path d="M29.5 59C25.5184 59 21.6548 58.2198 18.0167 56.6812C14.5036 55.1954 11.3491 53.0687 8.64051 50.3601C5.93193 47.6515 3.8052 44.4964 2.31933 40.9839C0.780243 37.3452 0 33.4816 0 29.5C0 25.5184 0.780243 21.6548 2.31875 18.0167C3.80462 14.5036 5.93135 11.3491 8.63993 8.64051C11.3485 5.93193 14.5036 3.80462 18.0161 2.31933C21.6548 0.780243 25.5178 0 29.5 0C33.4822 0 37.3452 0.780243 40.9833 2.31875C44.4964 3.80462 47.6509 5.93135 50.3595 8.63993C53.0681 11.3485 55.1954 14.5036 56.6807 18.0161C58.2192 21.6542 58.9994 25.5172 58.9994 29.4994C58.9994 33.4816 58.2192 37.3447 56.6807 40.9827C55.1948 44.4958 53.0681 47.6503 50.3595 50.3589C47.6509 53.0675 44.4958 55.1948 40.9833 56.6801C37.3452 58.2186 33.4822 58.9988 29.5 58.9988V59ZM29.5 2.89193C25.9071 2.89193 22.4229 3.59525 19.1434 4.98222C15.975 6.32234 13.1294 8.24084 10.6851 10.6851C8.24084 13.1294 6.32234 15.975 4.98222 19.1434C3.59525 22.4229 2.89193 25.9071 2.89193 29.5C2.89193 33.0929 3.59525 36.5771 4.98222 39.8566C6.32234 43.025 8.24084 45.8706 10.6851 48.3149C13.1294 50.7592 15.975 52.6777 19.1434 54.0178C22.4229 55.4048 25.9071 56.1081 29.5 56.1081C33.0929 56.1081 36.5771 55.4048 39.8566 54.0178C43.025 52.6777 45.8706 50.7592 48.3149 48.3149C50.7592 45.8706 52.6777 43.025 54.0178 39.8566C55.4048 36.5771 56.1081 33.0929 56.1081 29.5C56.1081 25.9071 55.4048 22.4229 54.0178 19.1434C52.6777 15.975 50.7592 13.1294 48.3149 10.6851C45.8706 8.24084 43.025 6.32234 39.8566 4.98222C36.5771 3.59525 33.0929 2.89193 29.5 2.89193Z" fill="black"/>
<path d="M52.4816 22.7364C52.4029 22.4559 52.3185 22.1771 52.2288 21.9007V21.8995C52.1531 21.8237 51.8726 21.5444 51.8066 21.4808C51.8014 21.4755 51.7956 21.4709 51.7916 21.4657C51.7482 21.4246 51.7071 21.3836 51.6643 21.3437C51.5371 21.2205 51.4075 21.0996 51.278 20.9799C51.2219 20.9278 51.1669 20.8775 51.1108 20.8278C51.0484 20.7716 50.9853 20.7155 50.9228 20.6594C50.8679 20.6085 50.8106 20.5588 50.7534 20.5091C50.747 20.5027 50.7407 20.4969 50.7337 20.4917C50.6828 20.4472 50.6331 20.4032 50.5828 20.3598C50.544 20.3274 50.5058 20.2939 50.4659 20.2604C50.4283 20.228 50.3884 20.1944 50.3502 20.162C50.3479 20.1597 50.3468 20.1597 50.345 20.158C50.2826 20.1053 50.2189 20.0533 50.1559 20.0012C50.1085 19.9613 50.0599 19.9214 50.0136 19.8832C49.9749 19.852 49.9361 19.8208 49.8979 19.7895C49.8534 19.7531 49.6313 19.5779 49.5642 19.5258C49.4983 19.4737 49.4312 19.4223 49.3652 19.3714C49.2982 19.3193 49.2311 19.269 49.1634 19.2181C49.0286 19.1163 48.8933 19.0162 48.7562 18.9179C48.688 18.8682 48.6191 18.8196 48.5497 18.771C48.5185 18.7485 48.4873 18.7259 48.4549 18.7039C48.4051 18.6675 48.3542 18.6328 48.3028 18.5969C48.1992 18.5246 48.0945 18.4535 47.9887 18.3829C47.928 18.3418 47.8666 18.3008 47.8059 18.2609C47.7608 18.2308 47.7163 18.2013 47.6712 18.1724C47.5653 18.103 47.4583 18.0353 47.3513 17.9659C47.2975 17.9312 47.2432 17.8976 47.1905 17.8653L47.0286 17.7646C46.9702 17.7288 46.9117 17.6935 46.8539 17.6588C46.7446 17.5917 46.6358 17.5269 46.5248 17.4633C46.4589 17.4245 46.3929 17.3864 46.327 17.3488C46.047 17.188 45.7619 17.0312 45.475 16.8803L45.4143 16.849C45.4143 16.849 45.4102 16.8467 45.4079 16.8456C45.368 16.8242 45.3281 16.8033 45.2882 16.7831C45.1812 16.7282 45.073 16.6732 44.9655 16.6188C44.9643 16.6188 44.9643 16.6177 44.9632 16.6177C44.8758 16.5726 44.785 16.5292 44.6965 16.4858C44.593 16.4349 44.4895 16.3852 44.3853 16.3366C44.3217 16.3065 44.2593 16.277 44.1951 16.2481C44.1268 16.2169 44.0603 16.1856 43.992 16.155C43.9284 16.1261 43.8625 16.0966 43.7989 16.0688C43.7352 16.0399 43.6705 16.0127 43.6068 15.9843C43.6028 15.9832 43.5982 15.9803 43.5941 15.9791C43.2332 15.8224 42.8682 15.6743 42.4992 15.5344C42.4483 15.5141 42.3974 15.4945 42.3471 15.4759C42.2962 15.4563 42.2465 15.4384 42.1962 15.4198C42.1435 15.4002 42.0915 15.3811 42.0383 15.3626C41.992 15.3452 41.9451 15.329 41.8989 15.3128C41.8913 15.3094 41.8827 15.3076 41.8752 15.3042C41.6744 15.233 41.4726 15.1636 41.2696 15.0977C41.1927 15.0717 41.1163 15.0468 41.0394 15.0231C40.9573 14.9959 40.8751 14.9704 40.793 14.9456C40.7132 14.9207 40.6345 14.897 40.5541 14.8744C40.5478 14.8721 40.542 14.8704 40.5356 14.8681C40.457 14.8443 40.376 14.8218 40.295 14.7992C40.2117 14.7744 40.1284 14.7518 40.0457 14.7281L37.7617 17.4951L37.5535 17.7478C37.5957 17.6455 37.6391 17.5437 37.6842 17.4413C37.6853 17.4401 37.6853 17.439 37.6865 17.4378C37.7004 17.402 37.7154 17.3678 37.7316 17.3343C37.7316 17.3331 37.7327 17.3331 37.7327 17.3331C37.7391 17.3158 37.7478 17.2984 37.7553 17.2811C37.7628 17.2649 37.7703 17.2475 37.7779 17.2302C37.8016 17.1764 37.8253 17.122 37.8502 17.0682C37.8525 17.0648 37.8542 17.0596 37.8554 17.0555C37.8588 17.0503 37.8606 17.0445 37.8629 17.0405C37.9167 16.9219 37.971 16.8051 38.0271 16.6882C38.0497 16.6397 38.0734 16.5899 38.0971 16.5425C38.1006 16.5338 38.1047 16.5263 38.1093 16.5176C38.1116 16.5113 38.1145 16.5049 38.1191 16.498C38.1226 16.4904 38.1266 16.4818 38.1301 16.4742C38.155 16.4216 38.1822 16.3684 38.2076 16.3158C38.2099 16.3117 38.2117 16.3048 38.214 16.3007C38.2377 16.2533 38.2614 16.2059 38.2863 16.1584C38.31 16.111 38.3349 16.0636 38.3586 16.0162C38.3788 15.9751 38.3985 15.9363 38.4193 15.8964C38.4453 15.8455 38.4719 15.7946 38.498 15.7455C38.5055 15.7316 38.5118 15.7183 38.5194 15.7056C38.5269 15.6917 38.5332 15.6772 38.5408 15.6645C38.5697 15.6084 38.6003 15.5511 38.6304 15.495C38.6663 15.4279 38.7027 15.362 38.7397 15.2961C38.7519 15.2712 38.7658 15.2475 38.7785 15.2238C38.7796 15.2215 38.7808 15.2203 38.7819 15.2186C38.812 15.1654 38.8404 15.1127 38.8716 15.0601C38.9005 15.0063 38.9312 14.9531 38.9612 14.9005C38.9751 14.8767 38.9896 14.8519 39.0046 14.827C39.0347 14.7744 39.0654 14.72 39.0966 14.6674C39.1278 14.6147 39.1579 14.5627 39.1903 14.5095V14.5083C39.4355 14.0971 39.6912 13.6916 39.959 13.2954C40.0185 13.2069 40.0775 13.1184 40.1394 13.0311C40.1394 13.0288 40.1406 13.0288 40.1417 13.0271C40.1458 13.0207 40.1516 13.0132 40.1556 13.0068C40.1921 12.9542 40.2302 12.901 40.2667 12.8483C40.2719 12.8408 40.2765 12.8333 40.2829 12.8258C40.3378 12.746 40.3927 12.6679 40.45 12.5904C40.4535 12.5863 40.4564 12.5805 40.4587 12.5777C40.5345 12.4718 40.6096 12.3694 40.6877 12.2653C40.7571 12.1716 40.8271 12.0785 40.8983 11.9854C40.9006 11.9819 40.9023 11.979 40.9058 11.9756C40.9341 11.9391 40.9619 11.9021 40.9902 11.8657C41.0515 11.7858 41.1134 11.7072 41.1759 11.6279C41.1921 11.6065 41.2094 11.5846 41.2268 11.5632C41.3025 11.4683 41.3789 11.3729 41.457 11.2792C41.4633 11.2693 41.472 11.2595 41.4807 11.2503C41.5478 11.1681 41.6166 11.0848 41.6849 11.0039C41.7161 10.9674 41.7473 10.9304 41.7786 10.8945L41.7907 10.8795C41.8254 10.8384 41.8607 10.7962 41.8966 10.7552C41.9324 10.7141 41.9688 10.673 42.0047 10.6308C42.0209 10.6123 42.0359 10.5949 42.051 10.5782C42.121 10.4984 42.1927 10.4185 42.2638 10.3393C42.2864 10.3144 42.3084 10.2896 42.3309 10.2658C42.3934 10.1947 42.4582 10.1241 42.5241 10.0542C42.6288 9.94079 42.7346 9.82974 42.8416 9.71811C42.9116 9.64466 42.9833 9.5712 43.0545 9.4989C43.0794 9.47288 43.1042 9.44685 43.1291 9.42198L43.2049 9.34621C43.2558 9.29531 43.3055 9.24557 43.3558 9.19583C43.3645 9.186 43.3743 9.17616 43.3842 9.16749C43.4189 9.13394 43.4524 9.10155 43.486 9.06801C43.5247 9.03157 43.5629 8.9934 43.6016 8.95811C43.6016 8.95811 43.602 8.95734 43.6028 8.9558C43.6491 8.91069 43.6959 8.86615 43.7422 8.82277C43.7445 8.82046 43.7474 8.81757 43.7497 8.81525C43.7584 8.80773 43.7671 8.79906 43.7757 8.79154C43.7798 8.78749 43.7856 8.78286 43.7896 8.77766C43.8729 8.699 43.9562 8.62207 44.0401 8.54457C44.0424 8.54225 44.0453 8.54052 44.0476 8.5382C44.0574 8.52837 44.0661 8.52085 44.0748 8.51333C44.1731 8.42253 44.2726 8.33288 44.3726 8.24438C43.538 8.37163 42.7173 8.53936 41.9104 8.74353C38.1833 9.68514 34.7732 11.4209 31.8668 13.7576C31.7146 13.8796 31.5643 14.004 31.4156 14.1312L31.5064 13.7714L32.3648 10.3694C30.6423 11.2821 29.061 12.429 27.6659 13.7668C27.4757 13.9484 27.2888 14.1341 27.1055 14.3238C26.8539 14.3764 26.6023 14.4331 26.353 14.4921C25.9695 14.5841 25.5907 14.683 25.2136 14.7911C19.9821 16.2834 15.3926 19.2945 11.9495 23.3165H11.9483C11.1877 24.2044 10.485 25.1396 9.8424 26.1188C9.16106 26.5387 8.54103 27.05 8.00024 27.6319H7.99909C7.53233 28.131 7.12341 28.6857 6.78216 29.282C6.03604 30.5845 5.61035 32.0941 5.61035 33.702C5.61035 34.2862 5.66645 34.8577 5.77346 35.4106C5.78965 35.4719 5.807 35.535 5.8232 35.5963L5.93772 35.565L7.28247 35.1949C7.40682 35.469 7.5439 35.7351 7.69312 35.993V35.9942C8.29695 37.0318 9.10149 37.937 10.0558 38.6542C10.6695 39.1152 11.3422 39.4986 12.0634 39.789C11.1519 38.1614 10.6359 36.3019 10.6359 34.3284V34.27L21.3523 31.3162L22.2042 31.082L22.8966 30.8911L22.5987 32.307L22.317 33.6407L22.0677 34.8299L22.0157 35.0728V35.074L21.9694 35.292L21.9405 35.4303L21.3679 38.1464L21.022 39.789L20.2534 43.4363L19.7987 45.5919C19.022 45.4016 18.2758 45.1408 17.5667 44.8163C17.2793 44.6844 16.9988 44.5433 16.7246 44.3906C16.9398 45.017 17.2452 45.6035 17.6252 46.1379C18.015 46.6868 18.4829 47.1813 19.015 47.6059C19.1359 47.6036 19.2579 47.5984 19.3788 47.5885C20.2267 47.5261 21.0324 47.3144 21.7635 46.9795L21.767 46.9743L22.3234 45.9459L23.6433 43.5028L25.0256 40.9423L25.5126 40.0417L27.6445 36.0942L31.2421 29.4364L31.7777 28.4439L32.3185 27.4416L32.4677 27.1686C32.54 27.2571 32.6111 27.3467 32.6829 27.4375C33.3989 27.4399 34.1011 27.5 34.7847 27.6157C34.927 27.6394 35.0675 27.6654 35.2081 27.6944C35.3041 27.714 35.4001 27.7343 35.4956 27.7568C37.4956 28.2114 39.3187 29.134 40.8416 30.4058C41.8613 31.2555 42.7456 32.2624 43.4582 33.3874C44.7144 35.3672 45.4409 37.7149 45.4409 40.232C45.4409 42.0002 45.0823 43.6827 44.4345 45.2148C44.1783 45.821 43.8764 46.404 43.5328 46.9581C42.8717 48.0264 42.0573 48.9894 41.1221 49.8176C41.1123 49.8251 41.1036 49.8338 41.0938 49.8413C40.6854 50.2734 40.2609 50.6869 39.8184 51.0814C47.8597 47.1501 53.3989 38.8884 53.3989 29.3329C53.3989 27.0454 53.0814 24.8325 52.4874 22.7353L52.4816 22.7364ZM22.184 22.5589C22.1666 22.6115 22.1493 22.667 22.1331 22.7208C22.1059 22.722 22.0782 22.7243 22.051 22.7249H22.0498C21.5987 23.279 21.1047 23.7983 20.5755 24.279C19.9613 24.8342 19.299 25.3386 18.5951 25.781C16.9091 26.8407 15.5823 27.6602 13.5192 27.9332L11.732 29.4989C12.0605 28.6845 12.1912 28.5747 12.6933 27.8598C13.5099 26.7001 14.5401 25.6879 15.7304 24.8759C16.6859 24.2223 17.7455 23.6965 18.8808 23.3264C19.1076 23.2529 19.3378 23.1847 19.5709 23.1222C20.4141 22.8382 21.2944 22.6306 22.2008 22.5085C22.2094 22.5062 22.2181 22.5051 22.2268 22.5051C22.2141 22.5224 22.1985 22.5409 22.1846 22.5577L22.184 22.5589Z" fill="black"/>
<mask id="mask0_64_383" style="mask-type:luminance" maskUnits="userSpaceOnUse" x="5" y="8" width="49" height="44">
<path d="M52.4816 22.7364C52.4029 22.4559 52.3185 22.1771 52.2288 21.9007V21.8995C52.1531 21.8237 51.8726 21.5444 51.8066 21.4808C51.8014 21.4755 51.7956 21.4709 51.7916 21.4657C51.7482 21.4246 51.7071 21.3836 51.6643 21.3437C51.5371 21.2205 51.4075 21.0996 51.278 20.9799C51.2219 20.9278 51.1669 20.8775 51.1108 20.8278C51.0484 20.7716 50.9853 20.7155 50.9228 20.6594C50.8679 20.6085 50.8106 20.5588 50.7534 20.5091C50.747 20.5027 50.7407 20.4969 50.7337 20.4917C50.6828 20.4472 50.6331 20.4032 50.5828 20.3598C50.544 20.3274 50.5058 20.2939 50.4659 20.2604C50.4283 20.228 50.3884 20.1944 50.3502 20.162C50.3479 20.1597 50.3468 20.1597 50.345 20.158C50.2826 20.1053 50.2189 20.0533 50.1559 20.0012C50.1085 19.9613 50.0599 19.9214 50.0136 19.8832C49.9749 19.852 49.9361 19.8208 49.8979 19.7895C49.8534 19.7531 49.6313 19.5779 49.5642 19.5258C49.4983 19.4737 49.4312 19.4223 49.3652 19.3714C49.2982 19.3193 49.2311 19.269 49.1634 19.2181C49.0286 19.1163 48.8933 19.0162 48.7562 18.9179C48.688 18.8682 48.6191 18.8196 48.5497 18.771C48.5185 18.7485 48.4873 18.7259 48.4549 18.7039C48.4051 18.6675 48.3542 18.6328 48.3028 18.5969C48.1992 18.5246 48.0945 18.4535 47.9887 18.3829C47.928 18.3418 47.8666 18.3008 47.8059 18.2609C47.7608 18.2308 47.7163 18.2013 47.6712 18.1724C47.5653 18.103 47.4583 18.0353 47.3513 17.9659C47.2975 17.9312 47.2432 17.8976 47.1905 17.8653L47.0286 17.7646C46.9702 17.7288 46.9117 17.6935 46.8539 17.6588C46.7446 17.5917 46.6358 17.5269 46.5248 17.4633C46.4589 17.4245 46.3929 17.3864 46.327 17.3488C46.047 17.188 45.7619 17.0312 45.475 16.8803L45.4143 16.849C45.4143 16.849 45.4102 16.8467 45.4079 16.8456C45.368 16.8242 45.3281 16.8033 45.2882 16.7831C45.1812 16.7282 45.073 16.6732 44.9655 16.6188C44.9643 16.6188 44.9643 16.6177 44.9632 16.6177C44.8758 16.5726 44.785 16.5292 44.6965 16.4858C44.593 16.4349 44.4895 16.3852 44.3853 16.3366C44.3217 16.3065 44.2593 16.277 44.1951 16.2481C44.1268 16.2169 44.0603 16.1856 43.992 16.155C43.9284 16.1261 43.8625 16.0966 43.7989 16.0688C43.7352 16.0399 43.6705 16.0127 43.6068 15.9843C43.6028 15.9832 43.5982 15.9803 43.5941 15.9791C43.2332 15.8224 42.8682 15.6743 42.4992 15.5344C42.4483 15.5141 42.3974 15.4945 42.3471 15.4759C42.2962 15.4563 42.2465 15.4384 42.1962 15.4198C42.1435 15.4002 42.0915 15.3811 42.0383 15.3626C41.992 15.3452 41.9451 15.329 41.8989 15.3128C41.8913 15.3094 41.8827 15.3076 41.8752 15.3042C41.6744 15.233 41.4726 15.1636 41.2696 15.0977C41.1927 15.0717 41.1163 15.0468 41.0394 15.0231C40.9573 14.9959 40.8751 14.9704 40.793 14.9456C40.7132 14.9207 40.6345 14.897 40.5541 14.8744C40.5478 14.8721 40.542 14.8704 40.5356 14.8681C40.457 14.8443 40.376 14.8218 40.295 14.7992C40.2117 14.7744 40.1284 14.7518 40.0457 14.7281L37.7617 17.4951L37.5535 17.7478C37.5957 17.6455 37.6391 17.5437 37.6842 17.4413C37.6853 17.4401 37.6853 17.439 37.6865 17.4378C37.7004 17.402 37.7154 17.3678 37.7316 17.3343C37.7316 17.3331 37.7327 17.3331 37.7327 17.3331C37.7391 17.3158 37.7478 17.2984 37.7553 17.2811C37.7628 17.2649 37.7703 17.2475 37.7779 17.2302C37.8016 17.1764 37.8253 17.122 37.8502 17.0682C37.8525 17.0648 37.8542 17.0596 37.8554 17.0555C37.8588 17.0503 37.8606 17.0445 37.8629 17.0405C37.9167 16.9219 37.971 16.8051 38.0271 16.6882C38.0497 16.6397 38.0734 16.5899 38.0971 16.5425C38.1006 16.5338 38.1047 16.5263 38.1093 16.5176C38.1116 16.5113 38.1145 16.5049 38.1191 16.498C38.1226 16.4904 38.1266 16.4818 38.1301 16.4742C38.155 16.4216 38.1822 16.3684 38.2076 16.3158C38.2099 16.3117 38.2117 16.3048 38.214 16.3007C38.2377 16.2533 38.2614 16.2059 38.2863 16.1584C38.31 16.111 38.3349 16.0636 38.3586 16.0162C38.3788 15.9751 38.3985 15.9363 38.4193 15.8964C38.4453 15.8455 38.4719 15.7946 38.498 15.7455C38.5055 15.7316 38.5118 15.7183 38.5194 15.7056C38.5269 15.6917 38.5332 15.6772 38.5408 15.6645C38.5697 15.6084 38.6003 15.5511 38.6304 15.495C38.6663 15.4279 38.7027 15.362 38.7397 15.2961C38.7519 15.2712 38.7658 15.2475 38.7785 15.2238C38.7796 15.2215 38.7808 15.2203 38.7819 15.2186C38.812 15.1654 38.8404 15.1127 38.8716 15.0601C38.9005 15.0063 38.9312 14.9531 38.9612 14.9005C38.9751 14.8767 38.9896 14.8519 39.0046 14.827C39.0347 14.7744 39.0654 14.72 39.0966 14.6674C39.1278 14.6147 39.1579 14.5627 39.1903 14.5095V14.5083C39.4355 14.0971 39.6912 13.6916 39.959 13.2954C40.0185 13.2069 40.0775 13.1184 40.1394 13.0311C40.1394 13.0288 40.1406 13.0288 40.1417 13.0271C40.1458 13.0207 40.1516 13.0132 40.1556 13.0068C40.1921 12.9542 40.2302 12.901 40.2667 12.8483C40.2719 12.8408 40.2765 12.8333 40.2829 12.8258C40.3378 12.746 40.3927 12.6679 40.45 12.5904C40.4535 12.5863 40.4564 12.5805 40.4587 12.5777C40.5345 12.4718 40.6096 12.3694 40.6877 12.2653C40.7571 12.1716 40.8271 12.0785 40.8983 11.9854C40.9006 11.9819 40.9023 11.979 40.9058 11.9756C40.9341 11.9391 40.9619 11.9021 40.9902 11.8657C41.0515 11.7858 41.1134 11.7072 41.1759 11.6279C41.1921 11.6065 41.2094 11.5846 41.2268 11.5632C41.3025 11.4683 41.3789 11.3729 41.457 11.2792C41.4633 11.2693 41.472 11.2595 41.4807 11.2503C41.5478 11.1681 41.6166 11.0848 41.6849 11.0039C41.7161 10.9674 41.7473 10.9304 41.7786 10.8945L41.7907 10.8795C41.8254 10.8384 41.8607 10.7962 41.8966 10.7552C41.9324 10.7141 41.9688 10.673 42.0047 10.6308C42.0209 10.6123 42.0359 10.5949 42.051 10.5782C42.121 10.4984 42.1927 10.4185 42.2638 10.3393C42.2864 10.3144 42.3084 10.2896 42.3309 10.2658C42.3934 10.1947 42.4582 10.1241 42.5241 10.0542C42.6288 9.94079 42.7346 9.82974 42.8416 9.71811C42.9116 9.64466 42.9833 9.5712 43.0545 9.4989C43.0794 9.47288 43.1042 9.44685 43.1291 9.42198L43.2049 9.34621C43.2558 9.29531 43.3055 9.24557 43.3558 9.19583C43.3645 9.186 43.3743 9.17616 43.3842 9.16749C43.4189 9.13394 43.4524 9.10155 43.486 9.06801C43.5247 9.03157 43.5629 8.9934 43.6016 8.95811C43.6016 8.95811 43.602 8.95734 43.6028 8.9558C43.6491 8.91069 43.6959 8.86615 43.7422 8.82277C43.7445 8.82046 43.7474 8.81757 43.7497 8.81525C43.7584 8.80773 43.7671 8.79906 43.7757 8.79154C43.7798 8.78749 43.7856 8.78286 43.7896 8.77766C43.8729 8.699 43.9562 8.62207 44.0401 8.54457C44.0424 8.54225 44.0453 8.54052 44.0476 8.5382C44.0574 8.52837 44.0661 8.52085 44.0748 8.51333C44.1731 8.42253 44.2726 8.33288 44.3726 8.24438C43.538 8.37163 42.7173 8.53936 41.9104 8.74353C38.1833 9.68514 34.7732 11.4209 31.8668 13.7576C31.7146 13.8796 31.5643 14.004 31.4156 14.1312L31.5064 13.7714L32.3648 10.3694C30.6423 11.2821 29.061 12.429 27.6659 13.7668C27.4757 13.9484 27.2888 14.1341 27.1055 14.3238C26.8539 14.3764 26.6023 14.4331 26.353 14.4921C25.9695 14.5841 25.5907 14.683 25.2136 14.7911C19.9821 16.2834 15.3926 19.2945 11.9495 23.3165H11.9483C11.1877 24.2044 10.485 25.1396 9.8424 26.1188C9.16106 26.5387 8.54103 27.05 8.00024 27.6319H7.99909C7.53233 28.131 7.12341 28.6857 6.78216 29.282C6.03604 30.5845 5.61035 32.0941 5.61035 33.702C5.61035 34.2862 5.66645 34.8577 5.77346 35.4106C5.78965 35.4719 5.807 35.535 5.8232 35.5963L5.93772 35.565L7.28247 35.1949C7.40682 35.469 7.5439 35.7351 7.69312 35.993V35.9942C8.29695 37.0318 9.10149 37.937 10.0558 38.6542C10.6695 39.1152 11.3422 39.4986 12.0634 39.789C11.1519 38.1614 10.6359 36.3019 10.6359 34.3284V34.27L21.3523 31.3162L22.2042 31.082L22.8966 30.8911L22.5987 32.307L22.317 33.6407L22.0677 34.8299L22.0157 35.0728V35.074L21.9694 35.292L21.9405 35.4303L21.3679 38.1464L21.022 39.789L20.2534 43.4363L19.7987 45.5919C19.022 45.4016 18.2758 45.1408 17.5667 44.8163C17.2793 44.6844 16.9988 44.5433 16.7246 44.3906C16.9398 45.017 17.2452 45.6035 17.6252 46.1379C18.015 46.6868 18.4829 47.1813 19.015 47.6059C19.1359 47.6036 19.2579 47.5984 19.3788 47.5885C20.2267 47.5261 21.0324 47.3144 21.7635 46.9795L21.767 46.9743L22.3234 45.9459L23.6433 43.5028L25.0256 40.9423L25.5126 40.0417L27.6445 36.0942L31.2421 29.4364L31.7777 28.4439L32.3185 27.4416L32.4677 27.1686C32.54 27.2571 32.6111 27.3467 32.6829 27.4375C33.3989 27.4399 34.1011 27.5 34.7847 27.6157C34.927 27.6394 35.0675 27.6654 35.2081 27.6944C35.3041 27.714 35.4001 27.7343 35.4956 27.7568C37.4956 28.2114 39.3187 29.134 40.8416 30.4058C41.8613 31.2555 42.7456 32.2624 43.4582 33.3874C44.7144 35.3672 45.4409 37.7149 45.4409 40.232C45.4409 42.0002 45.0823 43.6827 44.4345 45.2148C44.1783 45.821 43.8764 46.404 43.5328 46.9581C42.8717 48.0264 42.0573 48.9894 41.1221 49.8176C41.1123 49.8251 41.1036 49.8338 41.0938 49.8413C40.6854 50.2734 40.2609 50.6869 39.8184 51.0814C47.8597 47.1501 53.3989 38.8884 53.3989 29.3329C53.3989 27.0454 53.0814 24.8325 52.4874 22.7353L52.4816 22.7364ZM22.184 22.5589C22.1666 22.6115 22.1493 22.667 22.1331 22.7208C22.1059 22.722 22.0782 22.7243 22.051 22.7249H22.0498C21.5987 23.279 21.1047 23.7983 20.5755 24.279C19.9613 24.8342 19.299 25.3386 18.5951 25.781C16.9091 26.8407 15.5823 27.6602 13.5192 27.9332L11.732 29.4989C12.0605 28.6845 12.1912 28.5747 12.6933 27.8598C13.5099 26.7001 14.5401 25.6879 15.7304 24.8759C16.6859 24.2223 17.7455 23.6965 18.8808 23.3264C19.1076 23.2529 19.3378 23.1847 19.5709 23.1222C20.4141 22.8382 21.2944 22.6306 22.2008 22.5085C22.2094 22.5062 22.2181 22.5051 22.2268 22.5051C22.2141 22.5224 22.1985 22.5409 22.1846 22.5577L22.184 22.5589Z" fill="white"/>
</mask>
<g mask="url(#mask0_64_383)">
<path d="M11.8419 22.5063H11.7325V29.5002H11.8419V22.5063Z" fill="black"/>
<path d="M12.2826 22.5063H11.8419V29.5002H12.2826V22.5063Z" fill="black"/>
<path d="M12.7233 22.5063H12.2826V29.5002H12.7233V22.5063Z" fill="black"/>
<path d="M13.1641 22.5063H12.7233V29.5002H13.1641V22.5063Z" fill="black"/>
<path d="M13.6048 22.5063H13.1641V29.5002H13.6048V22.5063Z" fill="black"/>
<path d="M14.0455 22.5063H13.6048V29.5002H14.0455V22.5063Z" fill="black"/>
<path d="M14.4857 22.5063H14.0449V29.5002H14.4857V22.5063Z" fill="black"/>
<path d="M14.9264 22.5063H14.4857V29.5002H14.9264V22.5063Z" fill="black"/>
<path d="M15.3671 22.5063H14.9264V29.5002H15.3671V22.5063Z" fill="black"/>
<path d="M15.8079 22.5063H15.3671V29.5002H15.8079V22.5063Z" fill="black"/>
<path d="M16.2486 22.5063H15.8079V29.5002H16.2486V22.5063Z" fill="black"/>
<path d="M16.6893 22.5063H16.2486V29.5002H16.6893V22.5063Z" fill="black"/>
<path d="M17.1301 22.5063H16.6893V29.5002H17.1301V22.5063Z" fill="black"/>
<path d="M17.5708 22.5063H17.1301V29.5002H17.5708V22.5063Z" fill="black"/>
<path d="M18.0115 22.5063H17.5707V29.5002H18.0115V22.5063Z" fill="black"/>
<path d="M18.4522 22.5063H18.0115V29.5002H18.4522V22.5063Z" fill="black"/>
<path d="M18.8929 22.5063H18.4522V29.5002H18.8929V22.5063Z" fill="black"/>
<path d="M19.3337 22.5063H18.8929V29.5002H19.3337V22.5063Z" fill="black"/>
<path d="M19.7739 22.5063H19.3331V29.5002H19.7739V22.5063Z" fill="black"/>
<path d="M20.2146 22.5063H19.7739V29.5002H20.2146V22.5063Z" fill="black"/>
<path d="M20.6553 22.5063H20.2145V29.5002H20.6553V22.5063Z" fill="black"/>
<path d="M21.096 22.5063H20.6553V29.5002H21.096V22.5063Z" fill="black"/>
<path d="M21.5367 22.5063H21.096V29.5002H21.5367V22.5063Z" fill="black"/>
<path d="M21.9775 22.5063H21.5367V29.5002H21.9775V22.5063Z" fill="black"/>
<path d="M22.2262 22.5063H21.9775V29.5002H22.2262V22.5063Z" fill="black"/>
<path d="M9.63798 8.24316H5.60663V51.0819H9.63798V8.24316Z" fill="black"/>
<path d="M10.0789 8.24316H9.63818V51.0819H10.0789V8.24316Z" fill="black"/>
<path d="M10.5196 8.24316H10.0789V51.0819H10.5196V8.24316Z" fill="black"/>
<path d="M10.9604 8.24316H10.5197V51.0819H10.9604V8.24316Z" fill="black"/>
<path d="M11.4011 8.24316H10.9604V51.0819H11.4011V8.24316Z" fill="black"/>
<path d="M11.8419 8.24316H11.4011V51.0819H11.8419V8.24316Z" fill="black"/>
<path d="M12.2826 8.24316H11.8419V51.0819H12.2826V8.24316Z" fill="black"/>
<path d="M12.7233 8.24316H12.2826V51.0819H12.7233V8.24316Z" fill="black"/>
<path d="M13.1641 8.24316H12.7233V51.0819H13.1641V8.24316Z" fill="black"/>
<path d="M13.6048 8.24316H13.1641V51.0819H13.6048V8.24316Z" fill="black"/>
<path d="M14.0455 8.24316H13.6048V51.0819H14.0455V8.24316Z" fill="black"/>
<path d="M14.4857 8.24316H14.0449V51.0819H14.4857V8.24316Z" fill="black"/>
<path d="M14.9264 8.24316H14.4857V51.0819H14.9264V8.24316Z" fill="black"/>
<path d="M15.3671 8.24316H14.9264V51.0819H15.3671V8.24316Z" fill="black"/>
<path d="M15.8079 8.24316H15.3671V51.0819H15.8079V8.24316Z" fill="black"/>
<path d="M16.2486 8.24316H15.8079V51.0819H16.2486V8.24316Z" fill="black"/>
<path d="M16.6893 8.24316H16.2486V51.0819H16.6893V8.24316Z" fill="black"/>
<path d="M17.1301 8.24316H16.6893V51.0819H17.1301V8.24316Z" fill="black"/>
<path d="M17.5708 8.24316H17.1301V51.0819H17.5708V8.24316Z" fill="black"/>
<path d="M18.0115 8.24316H17.5707V51.0819H18.0115V8.24316Z" fill="black"/>
<path d="M18.4522 8.24316H18.0115V51.0819H18.4522V8.24316Z" fill="black"/>
<path d="M18.8929 8.24316H18.4522V51.0819H18.8929V8.24316Z" fill="black"/>
<path d="M19.3337 8.24316H18.8929V51.0819H19.3337V8.24316Z" fill="black"/>
<path d="M19.7739 8.24316H19.3331V51.0819H19.7739V8.24316Z" fill="black"/>
<path d="M20.2146 8.24316H19.7739V51.0819H20.2146V8.24316Z" fill="black"/>
<path d="M20.6553 8.24316H20.2145V51.0819H20.6553V8.24316Z" fill="black"/>
<path d="M21.096 8.24316H20.6553V51.0819H21.096V8.24316Z" fill="black"/>
<path d="M21.5367 8.24316H21.096V51.0819H21.5367V8.24316Z" fill="black"/>
<path d="M21.9775 8.24316H21.5367V51.0819H21.9775V8.24316Z" fill="black"/>
<path d="M22.4182 8.24316H21.9775V51.0819H22.4182V8.24316Z" fill="black"/>
<path d="M22.8589 8.24316H22.4182V51.0819H22.8589V8.24316Z" fill="black"/>
<path d="M23.2997 8.24316H22.8589V51.0819H23.2997V8.24316Z" fill="black"/>
<path d="M23.7404 8.24316H23.2997V51.0819H23.7404V8.24316Z" fill="black"/>
<path d="M24.1811 8.24316H23.7404V51.0819H24.1811V8.24316Z" fill="black"/>
<path d="M24.6219 8.24316H24.1812V51.0819H24.6219V8.24316Z" fill="black"/>
<path d="M25.0626 8.24316H24.6219V51.0819H25.0626V8.24316Z" fill="black"/>
<path d="M25.5027 8.24316H25.062V51.0819H25.5027V8.24316Z" fill="black"/>
<path d="M25.9435 8.24316H25.5027V51.0819H25.9435V8.24316Z" fill="black"/>
<path d="M26.3842 8.24316H25.9435V51.0819H26.3842V8.24316Z" fill="black"/>
<path d="M26.8249 8.24316H26.3842V51.0819H26.8249V8.24316Z" fill="black"/>
<path d="M27.2657 8.24316H26.825V51.0819H27.2657V8.24316Z" fill="black"/>
<path d="M27.7064 8.24316H27.2657V51.0819H27.7064V8.24316Z" fill="black"/>
<path d="M28.1472 8.24316H27.7064V51.0819H28.1472V8.24316Z" fill="black"/>
<path d="M28.5879 8.24316H28.1472V51.0819H28.5879V8.24316Z" fill="black"/>
<path d="M29.0286 8.24316H28.5879V51.0819H29.0286V8.24316Z" fill="black"/>
<path d="M29.4693 8.24316H29.0286V51.0819H29.4693V8.24316Z" fill="black"/>
<path d="M29.91 8.24316H29.4693V51.0819H29.91V8.24316Z" fill="black"/>
<path d="M30.3508 8.24316H29.91V51.0819H30.3508V8.24316Z" fill="black"/>
<path d="M30.7909 8.24316H30.3502V51.0819H30.7909V8.24316Z" fill="black"/>
<path d="M31.2317 8.24316H30.791V51.0819H31.2317V8.24316Z" fill="black"/>
<path d="M31.6724 8.24316H31.2317V51.0819H31.6724V8.24316Z" fill="black"/>
<path d="M32.1131 8.24316H31.6724V51.0819H32.1131V8.24316Z" fill="black"/>
<path d="M32.5538 8.24316H32.1131V51.0819H32.5538V8.24316Z" fill="black"/>
<path d="M32.9946 8.24316H32.5538V51.0819H32.9946V8.24316Z" fill="black"/>
<path d="M33.4353 8.24316H32.9946V51.0819H33.4353V8.24316Z" fill="black"/>
<path d="M33.876 8.24316H33.4353V51.0819H33.876V8.24316Z" fill="black"/>
<path d="M34.3168 8.24316H33.876V51.0819H34.3168V8.24316Z" fill="black"/>
<path d="M34.7575 8.24316H34.3168V51.0819H34.7575V8.24316Z" fill="black"/>
<path d="M35.1982 8.24316H34.7575V51.0819H35.1982V8.24316Z" fill="black"/>
<path d="M35.639 8.24316H35.1982V51.0819H35.639V8.24316Z" fill="black"/>
<path d="M36.0791 8.24316H35.6384V51.0819H36.0791V8.24316Z" fill="black"/>
<path d="M36.5198 8.24316H36.0791V51.0819H36.5198V8.24316Z" fill="black"/>
<path d="M36.9606 8.24316H36.5198V51.0819H36.9606V8.24316Z" fill="black"/>
<path d="M37.4013 8.24316H36.9606V51.0819H37.4013V8.24316Z" fill="black"/>
<path d="M37.842 8.24316H37.4013V51.0819H37.842V8.24316Z" fill="black"/>
<path d="M38.2828 8.24316H37.842V51.0819H38.2828V8.24316Z" fill="black"/>
<path d="M38.7235 8.24316H38.2828V51.0819H38.7235V8.24316Z" fill="black"/>
<path d="M39.1642 8.24316H38.7235V51.0819H39.1642V8.24316Z" fill="black"/>
<path d="M39.605 8.24316H39.1642V51.0819H39.605V8.24316Z" fill="black"/>
<path d="M40.0457 8.24316H39.605V51.0819H40.0457V8.24316Z" fill="black"/>
<path d="M40.4864 8.24316H40.0457V51.0819H40.4864V8.24316Z" fill="black"/>
<path d="M40.9272 8.24316H40.4865V51.0819H40.9272V8.24316Z" fill="black"/>
<path d="M41.3673 8.24316H40.9266V51.0819H41.3673V8.24316Z" fill="black"/>
<path d="M41.808 8.24316H41.3673V51.0819H41.808V8.24316Z" fill="black"/>
<path d="M42.2488 8.24316H41.808V51.0819H42.2488V8.24316Z" fill="black"/>
<path d="M42.6895 8.24316H42.2488V51.0819H42.6895V8.24316Z" fill="black"/>
<path d="M43.1302 8.24316H42.6895V51.0819H43.1302V8.24316Z" fill="black"/>
<path d="M43.571 8.24316H43.1302V51.0819H43.571V8.24316Z" fill="black"/>
<path d="M44.0117 8.24316H43.5709V51.0819H44.0117V8.24316Z" fill="black"/>
<path d="M44.4524 8.24316H44.0117V51.0819H44.4524V8.24316Z" fill="black"/>
<path d="M53.3931 8.24316H44.4524V51.0819H53.3931V8.24316Z" fill="black"/>
</g>
</g>
<defs>
<clipPath id="clip0_64_383">
<rect width="59" height="59" fill="white"/>
</clipPath>
</defs>
</svg>
