<svg width="50" height="50" viewBox="0 0 50 50" fill="none" xmlns="http://www.w3.org/2000/svg">
<g clip-path="url(#clip0_64_250)">
<path d="M25 50C21.6258 50 18.3515 49.3388 15.2684 48.035C12.2912 46.7757 9.61787 44.9734 7.32246 42.678C5.02706 40.3826 3.22475 37.7088 1.96553 34.7321C0.661223 31.6485 0 28.3742 0 25C0 21.6258 0.661223 18.3515 1.96504 15.2684C3.22426 12.2912 5.02657 9.61787 7.32198 7.32246C9.61738 5.02706 12.2912 3.22426 15.2679 1.96553C18.3515 0.661223 21.6253 0 25 0C28.3747 0 31.6485 0.661223 34.7316 1.96504C37.7088 3.22426 40.3821 5.02657 42.6775 7.32198C44.9729 9.61738 46.7757 12.2912 48.0345 15.2679C49.3383 18.351 49.9995 21.6248 49.9995 24.9995C49.9995 28.3742 49.3383 31.648 48.0345 34.7311C46.7753 37.7083 44.9729 40.3816 42.6775 42.677C40.3821 44.9725 37.7083 46.7753 34.7316 48.034C31.6485 49.3378 28.3747 49.999 25 49.999V50ZM25 2.45079C21.9551 2.45079 19.0024 3.04682 16.2232 4.22222C13.5382 5.35791 11.1266 6.98377 9.05517 9.05517C6.98377 11.1266 5.35791 13.5382 4.22222 16.2232C3.04682 19.0024 2.45079 21.9551 2.45079 25C2.45079 28.0449 3.04682 30.9976 4.22222 33.7768C5.35791 36.4618 6.98377 38.8734 9.05517 40.9448C11.1266 43.0162 13.5382 44.6421 16.2232 45.7778C19.0024 46.9532 21.9551 47.5492 25 47.5492C28.0449 47.5492 30.9976 46.9532 33.7768 45.7778C36.4618 44.6421 38.8734 43.0162 40.9448 40.9448C43.0162 38.8734 44.6421 36.4618 45.7778 33.7768C46.9532 30.9976 47.5492 28.0449 47.5492 25C47.5492 21.9551 46.9532 19.0024 45.7778 16.2232C44.6421 13.5382 43.0162 11.1266 40.9448 9.05517C38.8734 6.98377 36.4618 5.35791 33.7768 4.22222C30.9976 3.04682 28.0449 2.45079 25 2.45079Z" fill="#6B6B6B"/>
<path d="M44.4759 19.2681C44.4093 19.0304 44.3377 18.7941 44.2617 18.5598V18.5588C44.1975 18.4946 43.9598 18.2579 43.9039 18.204C43.8995 18.1995 43.8946 18.1956 43.8912 18.1912C43.8544 18.1564 43.8196 18.1216 43.7833 18.0878C43.6755 17.9834 43.5657 17.8809 43.4559 17.7795C43.4083 17.7354 43.3618 17.6927 43.3142 17.6506C43.2613 17.603 43.2079 17.5555 43.1549 17.5079C43.1084 17.4648 43.0598 17.4226 43.0113 17.3805C43.0059 17.3751 43.0005 17.3702 42.9947 17.3658C42.9515 17.328 42.9094 17.2908 42.8667 17.254C42.8339 17.2266 42.8015 17.1981 42.7677 17.1697C42.7359 17.1423 42.702 17.1138 42.6697 17.0864C42.6677 17.0844 42.6667 17.0844 42.6653 17.083C42.6123 17.0384 42.5584 16.9942 42.505 16.9501C42.4648 16.9163 42.4236 16.8825 42.3844 16.8501C42.3516 16.8237 42.3187 16.7972 42.2864 16.7707C42.2486 16.7399 42.0604 16.5913 42.0036 16.5472C41.9477 16.5031 41.8908 16.4595 41.8349 16.4163C41.7781 16.3722 41.7212 16.3296 41.6639 16.2865C41.5497 16.2002 41.435 16.1154 41.3188 16.0321C41.261 15.9899 41.2026 15.9487 41.1438 15.9076C41.1174 15.8884 41.0909 15.8693 41.0634 15.8507C41.0213 15.8198 40.9781 15.7904 40.9345 15.76C40.8468 15.6988 40.7581 15.6385 40.6684 15.5787C40.6169 15.5439 40.5649 15.5091 40.5135 15.4752C40.4752 15.4498 40.4375 15.4248 40.3993 15.4003C40.3096 15.3414 40.2189 15.2841 40.1282 15.2253C40.0826 15.1959 40.0366 15.1674 39.992 15.14L39.8547 15.0547C39.8052 15.0243 39.7557 14.9944 39.7067 14.965C39.614 14.9081 39.5219 14.8532 39.4278 14.7993C39.3719 14.7665 39.316 14.7341 39.2601 14.7023C39.0229 14.566 38.7813 14.4332 38.5381 14.3052L38.4867 14.2788C38.4867 14.2788 38.4832 14.2768 38.4813 14.2758C38.4475 14.2577 38.4136 14.24 38.3798 14.2229C38.2891 14.1763 38.1975 14.1298 38.1063 14.0837C38.1053 14.0837 38.1053 14.0827 38.1044 14.0827C38.0303 14.0445 37.9534 14.0077 37.8784 13.971C37.7907 13.9278 37.7029 13.8857 37.6147 13.8445C37.5608 13.819 37.5078 13.794 37.4534 13.7695C37.3956 13.743 37.3392 13.7166 37.2814 13.6906C37.2275 13.6661 37.1716 13.6411 37.1177 13.6175C37.0637 13.593 37.0089 13.57 36.9549 13.546C36.9515 13.545 36.9476 13.5426 36.9441 13.5416C36.6383 13.4087 36.329 13.2833 36.0163 13.1646C35.9731 13.1475 35.93 13.1308 35.8874 13.1151C35.8442 13.0985 35.8021 13.0833 35.7594 13.0676C35.7148 13.0509 35.6707 13.0347 35.6256 13.0191C35.5864 13.0044 35.5467 12.9906 35.5075 12.9769C35.5011 12.974 35.4938 12.9725 35.4874 12.9696C35.3173 12.9093 35.1463 12.8505 34.9742 12.7946C34.909 12.7725 34.8443 12.7514 34.7791 12.7313C34.7095 12.7083 34.6399 12.6867 34.5703 12.6657C34.5027 12.6446 34.436 12.6245 34.3679 12.6054C34.3625 12.6034 34.3576 12.6019 34.3522 12.6C34.2855 12.5799 34.2169 12.5608 34.1483 12.5417C34.0777 12.5206 34.0071 12.5015 33.937 12.4814L32.0014 14.8263L31.8249 15.0405C31.8607 14.9537 31.8975 14.8674 31.9357 14.7807C31.9367 14.7797 31.9367 14.7787 31.9377 14.7777C31.9494 14.7474 31.9622 14.7184 31.9759 14.69C31.9759 14.689 31.9769 14.689 31.9769 14.689C31.9823 14.6743 31.9896 14.6596 31.996 14.6449C32.0024 14.6312 32.0088 14.6165 32.0151 14.6018C32.0352 14.5562 32.0553 14.5101 32.0764 14.4645C32.0784 14.4616 32.0798 14.4572 32.0808 14.4538C32.0837 14.4493 32.0852 14.4444 32.0872 14.441C32.1328 14.3405 32.1788 14.2415 32.2264 14.1425C32.2455 14.1013 32.2656 14.0592 32.2857 14.019C32.2886 14.0116 32.2921 14.0053 32.296 13.9979C32.2979 13.9925 32.3004 13.9871 32.3043 13.9812C32.3073 13.9749 32.3107 13.9675 32.3136 13.9611C32.3347 13.9165 32.3577 13.8714 32.3793 13.8268C32.3813 13.8234 32.3827 13.8175 32.3847 13.8141C32.4048 13.7739 32.4249 13.7337 32.446 13.6935C32.4661 13.6533 32.4871 13.6131 32.5072 13.5729C32.5244 13.5381 32.5411 13.5053 32.5587 13.4715C32.5808 13.4283 32.6033 13.3852 32.6254 13.3435C32.6317 13.3318 32.6371 13.3205 32.6435 13.3097C32.6499 13.298 32.6553 13.2857 32.6616 13.2749C32.6861 13.2274 32.7121 13.1789 32.7376 13.1313C32.768 13.0745 32.7989 13.0186 32.8303 12.9627C32.8405 12.9416 32.8523 12.9215 32.8631 12.9014C32.8641 12.8995 32.8651 12.8985 32.866 12.897C32.8915 12.8519 32.9155 12.8073 32.942 12.7627C32.9665 12.7171 32.9925 12.672 33.018 12.6274C33.0298 12.6073 33.042 12.5863 33.0547 12.5652C33.0802 12.5206 33.1062 12.4745 33.1327 12.4299C33.1592 12.3853 33.1846 12.3412 33.2121 12.2961V12.2951C33.4199 11.9466 33.6366 11.603 33.8635 11.2672C33.914 11.1922 33.964 11.1173 34.0164 11.0432C34.0164 11.0413 34.0174 11.0413 34.0184 11.0398C34.0218 11.0344 34.0267 11.028 34.0302 11.0227C34.061 10.978 34.0934 10.933 34.1243 10.8883C34.1287 10.882 34.1326 10.8756 34.138 10.8692C34.1846 10.8016 34.2311 10.7354 34.2797 10.6697C34.2826 10.6663 34.285 10.6614 34.287 10.659C34.3512 10.5693 34.4149 10.4825 34.4811 10.3943C34.5399 10.3149 34.5992 10.2359 34.6595 10.157C34.6615 10.1541 34.663 10.1516 34.6659 10.1487C34.6899 10.1178 34.7134 10.0865 34.7375 10.0556C34.7894 9.98793 34.8419 9.92127 34.8948 9.85412C34.9085 9.83598 34.9232 9.81735 34.9379 9.79922C35.0021 9.71883 35.0668 9.63796 35.133 9.55855C35.1384 9.55022 35.1458 9.54189 35.1531 9.53404C35.21 9.46444 35.2683 9.39386 35.3261 9.32524C35.3526 9.29436 35.3791 9.26299 35.4055 9.2326L35.4158 9.21985C35.4452 9.18505 35.4751 9.14927 35.5055 9.11447C35.5359 9.07967 35.5668 9.04487 35.5972 9.00909C35.6109 8.9934 35.6237 8.9787 35.6364 8.96448C35.6957 8.89684 35.7565 8.8292 35.8168 8.76205C35.8359 8.74097 35.8545 8.71989 35.8736 8.6998C35.9266 8.63951 35.9815 8.57971 36.0374 8.5204C36.1261 8.42433 36.2158 8.33022 36.3065 8.23562C36.3658 8.17337 36.4265 8.11112 36.4868 8.04985C36.5079 8.02779 36.529 8.00573 36.5501 7.98466L36.6143 7.92044C36.6574 7.87731 36.6996 7.83516 36.7422 7.793C36.7496 7.78467 36.7579 7.77634 36.7662 7.76899C36.7956 7.74056 36.8241 7.71311 36.8525 7.68468C36.8853 7.6538 36.9177 7.62145 36.9505 7.59155C36.9505 7.59155 36.9508 7.5909 36.9515 7.58959C36.9907 7.55136 37.0304 7.51361 37.0696 7.47685C37.0716 7.47489 37.074 7.47244 37.076 7.47048C37.0834 7.46411 37.0907 7.45676 37.0981 7.45038C37.1015 7.44695 37.1064 7.44303 37.1098 7.43862C37.1804 7.37196 37.251 7.30677 37.3221 7.24109C37.324 7.23913 37.3265 7.23766 37.3284 7.23569C37.3368 7.22736 37.3441 7.22099 37.3515 7.21462C37.4348 7.13766 37.5191 7.06169 37.6039 6.98669C36.8966 7.09453 36.2011 7.23667 35.5173 7.4097C32.3587 8.20768 29.4688 9.67864 27.0057 11.6589C26.8768 11.7623 26.7494 11.8677 26.6234 11.9755L26.7003 11.6706L27.4277 8.78753C25.9681 9.561 24.628 10.533 23.4457 11.6667C23.2844 11.8206 23.1261 11.978 22.9707 12.1387C22.7575 12.1833 22.5443 12.2314 22.333 12.2814C22.0081 12.3593 21.687 12.4431 21.3674 12.5348C16.934 13.7994 13.0446 16.3512 10.1266 19.7597H10.1257C9.48111 20.5121 8.88557 21.3047 8.341 22.1345C7.76359 22.4904 7.23815 22.9237 6.77985 23.4168H6.77887C6.38331 23.8398 6.03677 24.3098 5.74758 24.8152C5.11527 25.919 4.75452 27.1983 4.75452 28.561C4.75452 29.056 4.80206 29.5403 4.89274 30.0089C4.90647 30.0609 4.92117 30.1143 4.93489 30.1662L5.03195 30.1398L6.17156 29.8261C6.27695 30.0584 6.39311 30.2839 6.51957 30.5025V30.5035C7.0313 31.3828 7.71311 32.1499 8.52187 32.7577C9.04193 33.1484 9.61198 33.4733 10.2232 33.7194C9.45072 32.3401 9.0135 30.7642 9.0135 29.0918V29.0423L18.0951 26.5391L18.8171 26.3406L19.4039 26.1788L19.1514 27.3787L18.9127 28.509L18.7015 29.5168L18.6573 29.7227V29.7236L18.6181 29.9084L18.5936 30.0256L18.1084 32.3274L17.8153 33.7194L17.1638 36.8103L16.7786 38.6372C16.1203 38.4759 15.488 38.2548 14.8871 37.9798C14.6434 37.8681 14.4057 37.7485 14.1734 37.6191C14.3557 38.1499 14.6145 38.647 14.9366 39.0999C15.2669 39.565 15.6635 39.9841 16.1144 40.3439C16.2169 40.3419 16.3203 40.3375 16.4227 40.3292C17.1413 40.2762 17.8241 40.0968 18.4436 39.813L18.4466 39.8086L18.9181 38.9371L20.0367 36.8667L21.2081 34.6968L21.6208 33.9336L23.4276 30.5883L26.4763 24.9461L26.9302 24.105L27.3885 23.2555L27.515 23.0242C27.5763 23.0992 27.6365 23.1751 27.6973 23.2521C28.3041 23.254 28.8992 23.305 29.4786 23.4031C29.5991 23.4231 29.7182 23.4452 29.8374 23.4697C29.9187 23.4864 30.0001 23.5035 30.081 23.5226C31.7759 23.9079 33.3209 24.6897 34.6115 25.7676C35.4756 26.4876 36.2251 27.341 36.829 28.2943C37.8936 29.9721 38.5092 31.9617 38.5092 34.0949C38.5092 35.5933 38.2053 37.0191 37.6563 38.3176C37.4392 38.8313 37.1833 39.3253 36.8922 39.7949C36.3319 40.7002 35.6418 41.5163 34.8492 42.2182C34.8409 42.2246 34.8335 42.232 34.8252 42.2383C34.4791 42.6045 34.1194 42.9549 33.7444 43.2892C40.5591 39.9576 45.2533 32.9562 45.2533 24.8583C45.2533 22.9198 44.9842 21.0444 44.4808 19.2671L44.4759 19.2681ZM18.8 19.1176C18.7853 19.1622 18.7706 19.2093 18.7569 19.2548C18.7338 19.2558 18.7103 19.2578 18.6872 19.2583H18.6863C18.3039 19.7279 17.8853 20.168 17.4369 20.5753C16.9163 21.0459 16.3551 21.4733 15.7586 21.8483C14.3297 22.7462 13.2053 23.4408 11.4569 23.6722L9.94234 24.999C10.2208 24.3089 10.3315 24.2157 10.757 23.6099C11.4491 22.6271 12.3221 21.7694 13.3308 21.0812C14.1405 20.5273 15.0385 20.0817 16.0007 19.768C16.1928 19.7058 16.3879 19.648 16.5855 19.595C17.3001 19.3544 18.0461 19.1784 18.8142 19.075C18.8216 19.073 18.8289 19.072 18.8363 19.072C18.8255 19.0867 18.8122 19.1024 18.8005 19.1166L18.8 19.1176Z" fill="#6B6B6B"/>
<mask id="mask0_64_250" style="mask-type:luminance" maskUnits="userSpaceOnUse" x="4" y="6" width="42" height="38">
<path d="M44.4759 19.2681C44.4093 19.0304 44.3377 18.7941 44.2617 18.5598V18.5588C44.1975 18.4946 43.9598 18.2579 43.9039 18.204C43.8995 18.1995 43.8946 18.1956 43.8912 18.1912C43.8544 18.1564 43.8196 18.1216 43.7833 18.0878C43.6755 17.9834 43.5657 17.8809 43.4559 17.7795C43.4083 17.7354 43.3618 17.6927 43.3142 17.6506C43.2613 17.603 43.2079 17.5555 43.1549 17.5079C43.1084 17.4648 43.0598 17.4226 43.0113 17.3805C43.0059 17.3751 43.0005 17.3702 42.9947 17.3658C42.9515 17.328 42.9094 17.2908 42.8667 17.254C42.8339 17.2266 42.8015 17.1981 42.7677 17.1697C42.7359 17.1423 42.702 17.1138 42.6697 17.0864C42.6677 17.0844 42.6667 17.0844 42.6653 17.083C42.6123 17.0384 42.5584 16.9942 42.505 16.9501C42.4648 16.9163 42.4236 16.8825 42.3844 16.8501C42.3516 16.8237 42.3187 16.7972 42.2864 16.7707C42.2486 16.7399 42.0604 16.5913 42.0036 16.5472C41.9477 16.5031 41.8908 16.4595 41.8349 16.4163C41.7781 16.3722 41.7212 16.3296 41.6639 16.2865C41.5497 16.2002 41.435 16.1154 41.3188 16.0321C41.261 15.9899 41.2026 15.9487 41.1438 15.9076C41.1174 15.8884 41.0909 15.8693 41.0634 15.8507C41.0213 15.8198 40.9781 15.7904 40.9345 15.76C40.8468 15.6988 40.7581 15.6385 40.6684 15.5787C40.6169 15.5439 40.5649 15.5091 40.5135 15.4752C40.4752 15.4498 40.4375 15.4248 40.3993 15.4003C40.3096 15.3414 40.2189 15.2841 40.1282 15.2253C40.0826 15.1959 40.0366 15.1674 39.992 15.14L39.8547 15.0547C39.8052 15.0243 39.7557 14.9944 39.7067 14.965C39.614 14.9081 39.5219 14.8532 39.4278 14.7993C39.3719 14.7665 39.316 14.7341 39.2601 14.7023C39.0229 14.566 38.7813 14.4332 38.5381 14.3052L38.4867 14.2788C38.4867 14.2788 38.4832 14.2768 38.4813 14.2758C38.4475 14.2577 38.4136 14.24 38.3798 14.2229C38.2891 14.1763 38.1975 14.1298 38.1063 14.0837C38.1053 14.0837 38.1053 14.0827 38.1044 14.0827C38.0303 14.0445 37.9534 14.0077 37.8784 13.971C37.7907 13.9278 37.7029 13.8857 37.6147 13.8445C37.5608 13.819 37.5078 13.794 37.4534 13.7695C37.3956 13.743 37.3392 13.7166 37.2814 13.6906C37.2275 13.6661 37.1716 13.6411 37.1177 13.6175C37.0637 13.593 37.0089 13.57 36.9549 13.546C36.9515 13.545 36.9476 13.5426 36.9441 13.5416C36.6383 13.4087 36.329 13.2833 36.0163 13.1646C35.9731 13.1475 35.93 13.1308 35.8874 13.1151C35.8442 13.0985 35.8021 13.0833 35.7594 13.0676C35.7148 13.0509 35.6707 13.0347 35.6256 13.0191C35.5864 13.0044 35.5467 12.9906 35.5075 12.9769C35.5011 12.974 35.4938 12.9725 35.4874 12.9696C35.3173 12.9093 35.1463 12.8505 34.9742 12.7946C34.909 12.7725 34.8443 12.7514 34.7791 12.7313C34.7095 12.7083 34.6399 12.6867 34.5703 12.6657C34.5027 12.6446 34.436 12.6245 34.3679 12.6054C34.3625 12.6034 34.3576 12.6019 34.3522 12.6C34.2855 12.5799 34.2169 12.5608 34.1483 12.5417C34.0777 12.5206 34.0071 12.5015 33.937 12.4814L32.0014 14.8263L31.8249 15.0405C31.8607 14.9537 31.8975 14.8674 31.9357 14.7807C31.9367 14.7797 31.9367 14.7787 31.9377 14.7777C31.9494 14.7474 31.9622 14.7184 31.9759 14.69C31.9759 14.689 31.9769 14.689 31.9769 14.689C31.9823 14.6743 31.9896 14.6596 31.996 14.6449C32.0024 14.6312 32.0088 14.6165 32.0151 14.6018C32.0352 14.5562 32.0553 14.5101 32.0764 14.4645C32.0784 14.4616 32.0798 14.4572 32.0808 14.4538C32.0837 14.4493 32.0852 14.4444 32.0872 14.441C32.1328 14.3405 32.1788 14.2415 32.2264 14.1425C32.2455 14.1013 32.2656 14.0592 32.2857 14.019C32.2886 14.0116 32.2921 14.0053 32.296 13.9979C32.2979 13.9925 32.3004 13.9871 32.3043 13.9812C32.3073 13.9749 32.3107 13.9675 32.3136 13.9611C32.3347 13.9165 32.3577 13.8714 32.3793 13.8268C32.3813 13.8234 32.3827 13.8175 32.3847 13.8141C32.4048 13.7739 32.4249 13.7337 32.446 13.6935C32.4661 13.6533 32.4871 13.6131 32.5072 13.5729C32.5244 13.5381 32.5411 13.5053 32.5587 13.4715C32.5808 13.4283 32.6033 13.3852 32.6254 13.3435C32.6317 13.3318 32.6371 13.3205 32.6435 13.3097C32.6499 13.298 32.6553 13.2857 32.6616 13.2749C32.6861 13.2274 32.7121 13.1789 32.7376 13.1313C32.768 13.0745 32.7989 13.0186 32.8303 12.9627C32.8405 12.9416 32.8523 12.9215 32.8631 12.9014C32.8641 12.8995 32.8651 12.8985 32.866 12.897C32.8915 12.8519 32.9155 12.8073 32.942 12.7627C32.9665 12.7171 32.9925 12.672 33.018 12.6274C33.0298 12.6073 33.042 12.5863 33.0547 12.5652C33.0802 12.5206 33.1062 12.4745 33.1327 12.4299C33.1592 12.3853 33.1846 12.3412 33.2121 12.2961V12.2951C33.4199 11.9466 33.6366 11.603 33.8635 11.2672C33.914 11.1922 33.964 11.1173 34.0164 11.0432C34.0164 11.0413 34.0174 11.0413 34.0184 11.0398C34.0218 11.0344 34.0267 11.028 34.0302 11.0227C34.061 10.978 34.0934 10.933 34.1243 10.8883C34.1287 10.882 34.1326 10.8756 34.138 10.8692C34.1846 10.8016 34.2311 10.7354 34.2797 10.6697C34.2826 10.6663 34.285 10.6614 34.287 10.659C34.3512 10.5693 34.4149 10.4825 34.4811 10.3943C34.5399 10.3149 34.5992 10.2359 34.6595 10.157C34.6615 10.1541 34.663 10.1516 34.6659 10.1487C34.6899 10.1178 34.7134 10.0865 34.7375 10.0556C34.7894 9.98793 34.8419 9.92127 34.8948 9.85412C34.9085 9.83598 34.9232 9.81735 34.9379 9.79922C35.0021 9.71883 35.0668 9.63796 35.133 9.55855C35.1384 9.55022 35.1458 9.54189 35.1531 9.53404C35.21 9.46444 35.2683 9.39386 35.3261 9.32524C35.3526 9.29436 35.3791 9.26299 35.4055 9.2326L35.4158 9.21985C35.4452 9.18505 35.4751 9.14927 35.5055 9.11447C35.5359 9.07967 35.5668 9.04487 35.5972 9.00909C35.6109 8.9934 35.6237 8.9787 35.6364 8.96448C35.6957 8.89684 35.7565 8.8292 35.8168 8.76205C35.8359 8.74097 35.8545 8.71989 35.8736 8.6998C35.9266 8.63951 35.9815 8.57971 36.0374 8.5204C36.1261 8.42433 36.2158 8.33022 36.3065 8.23562C36.3658 8.17337 36.4265 8.11112 36.4868 8.04985C36.5079 8.02779 36.529 8.00573 36.5501 7.98466L36.6143 7.92044C36.6574 7.87731 36.6996 7.83516 36.7422 7.793C36.7496 7.78467 36.7579 7.77634 36.7662 7.76899C36.7956 7.74056 36.8241 7.71311 36.8525 7.68468C36.8853 7.6538 36.9177 7.62145 36.9505 7.59155C36.9505 7.59155 36.9508 7.5909 36.9515 7.58959C36.9907 7.55136 37.0304 7.51361 37.0696 7.47685C37.0716 7.47489 37.074 7.47244 37.076 7.47048C37.0834 7.46411 37.0907 7.45676 37.0981 7.45038C37.1015 7.44695 37.1064 7.44303 37.1098 7.43862C37.1804 7.37196 37.251 7.30677 37.3221 7.24109C37.324 7.23913 37.3265 7.23766 37.3284 7.23569C37.3368 7.22736 37.3441 7.22099 37.3515 7.21462C37.4348 7.13766 37.5191 7.06169 37.6039 6.98669C36.8966 7.09453 36.2011 7.23667 35.5173 7.4097C32.3587 8.20768 29.4688 9.67864 27.0057 11.6589C26.8768 11.7623 26.7494 11.8677 26.6234 11.9755L26.7003 11.6706L27.4277 8.78753C25.9681 9.561 24.628 10.533 23.4457 11.6667C23.2844 11.8206 23.1261 11.978 22.9707 12.1387C22.7575 12.1833 22.5443 12.2314 22.333 12.2814C22.0081 12.3593 21.687 12.4431 21.3674 12.5348C16.934 13.7994 13.0446 16.3512 10.1266 19.7597H10.1257C9.48111 20.5121 8.88557 21.3047 8.341 22.1345C7.76359 22.4904 7.23815 22.9237 6.77985 23.4168H6.77887C6.38331 23.8398 6.03677 24.3098 5.74758 24.8152C5.11527 25.919 4.75452 27.1983 4.75452 28.561C4.75452 29.056 4.80206 29.5403 4.89274 30.0089C4.90647 30.0609 4.92117 30.1143 4.93489 30.1662L5.03195 30.1398L6.17156 29.8261C6.27695 30.0584 6.39311 30.2839 6.51957 30.5025V30.5035C7.0313 31.3828 7.71311 32.1499 8.52187 32.7577C9.04193 33.1484 9.61198 33.4733 10.2232 33.7194C9.45072 32.3401 9.0135 30.7642 9.0135 29.0918V29.0423L18.0951 26.5391L18.8171 26.3406L19.4039 26.1788L19.1514 27.3787L18.9127 28.509L18.7015 29.5168L18.6573 29.7227V29.7236L18.6181 29.9084L18.5936 30.0256L18.1084 32.3274L17.8153 33.7194L17.1638 36.8103L16.7786 38.6372C16.1203 38.4759 15.488 38.2548 14.8871 37.9798C14.6434 37.8681 14.4057 37.7485 14.1734 37.6191C14.3557 38.1499 14.6145 38.647 14.9366 39.0999C15.2669 39.565 15.6635 39.9841 16.1144 40.3439C16.2169 40.3419 16.3203 40.3375 16.4227 40.3292C17.1413 40.2762 17.8241 40.0968 18.4436 39.813L18.4466 39.8086L18.9181 38.9371L20.0367 36.8667L21.2081 34.6968L21.6208 33.9336L23.4276 30.5883L26.4763 24.9461L26.9302 24.105L27.3885 23.2555L27.515 23.0242C27.5763 23.0992 27.6365 23.1751 27.6973 23.2521C28.3041 23.254 28.8992 23.305 29.4786 23.4031C29.5991 23.4231 29.7182 23.4452 29.8374 23.4697C29.9187 23.4864 30.0001 23.5035 30.081 23.5226C31.7759 23.9079 33.3209 24.6897 34.6115 25.7676C35.4756 26.4876 36.2251 27.341 36.829 28.2943C37.8936 29.9721 38.5092 31.9617 38.5092 34.0949C38.5092 35.5933 38.2053 37.0191 37.6563 38.3176C37.4392 38.8313 37.1833 39.3253 36.8922 39.7949C36.3319 40.7002 35.6418 41.5163 34.8492 42.2182C34.8409 42.2246 34.8335 42.232 34.8252 42.2383C34.4791 42.6045 34.1194 42.9549 33.7444 43.2892C40.5591 39.9576 45.2533 32.9562 45.2533 24.8583C45.2533 22.9198 44.9842 21.0444 44.4808 19.2671L44.4759 19.2681ZM18.8 19.1176C18.7853 19.1622 18.7706 19.2093 18.7569 19.2548C18.7338 19.2558 18.7103 19.2578 18.6872 19.2583H18.6863C18.3039 19.7279 17.8853 20.168 17.4369 20.5753C16.9163 21.0459 16.3551 21.4733 15.7586 21.8483C14.3297 22.7462 13.2053 23.4408 11.4569 23.6722L9.94234 24.999C10.2208 24.3089 10.3315 24.2157 10.757 23.6099C11.4491 22.6271 12.3221 21.7694 13.3308 21.0812C14.1405 20.5273 15.0385 20.0817 16.0007 19.768C16.1928 19.7058 16.3879 19.648 16.5855 19.595C17.3001 19.3544 18.0461 19.1784 18.8142 19.075C18.8216 19.073 18.8289 19.072 18.8363 19.072C18.8255 19.0867 18.8122 19.1024 18.8005 19.1166L18.8 19.1176Z" fill="white"/>
</mask>
<g mask="url(#mask0_64_250)">
<path d="M10.0354 19.073H9.94281V25H10.0354V19.073Z" fill="#6B6B6B"/>
<path d="M10.409 19.073H10.0355V25H10.409V19.073Z" fill="#6B6B6B"/>
<path d="M10.7824 19.073H10.4089V25H10.7824V19.073Z" fill="#6B6B6B"/>
<path d="M11.156 19.073H10.7825V25H11.156V19.073Z" fill="#6B6B6B"/>
<path d="M11.5294 19.073H11.1559V25H11.5294V19.073Z" fill="#6B6B6B"/>
<path d="M11.903 19.073H11.5295V25H11.903V19.073Z" fill="#6B6B6B"/>
<path d="M12.276 19.073H11.9025V25H12.276V19.073Z" fill="#6B6B6B"/>
<path d="M12.6495 19.073H12.276V25H12.6495V19.073Z" fill="#6B6B6B"/>
<path d="M13.023 19.073H12.6495V25H13.023V19.073Z" fill="#6B6B6B"/>
<path d="M13.3964 19.073H13.0229V25H13.3964V19.073Z" fill="#6B6B6B"/>
<path d="M13.77 19.073H13.3965V25H13.77V19.073Z" fill="#6B6B6B"/>
<path d="M14.1435 19.073H13.77V25H14.1435V19.073Z" fill="#6B6B6B"/>
<path d="M14.517 19.073H14.1435V25H14.517V19.073Z" fill="#6B6B6B"/>
<path d="M14.8905 19.073H14.517V25H14.8905V19.073Z" fill="#6B6B6B"/>
<path d="M15.264 19.073H14.8905V25H15.264V19.073Z" fill="#6B6B6B"/>
<path d="M15.6375 19.073H15.264V25H15.6375V19.073Z" fill="#6B6B6B"/>
<path d="M16.011 19.073H15.6375V25H16.011V19.073Z" fill="#6B6B6B"/>
<path d="M16.3845 19.073H16.011V25H16.3845V19.073Z" fill="#6B6B6B"/>
<path d="M16.7575 19.073H16.384V25H16.7575V19.073Z" fill="#6B6B6B"/>
<path d="M17.131 19.073H16.7575V25H17.131V19.073Z" fill="#6B6B6B"/>
<path d="M17.5045 19.073H17.131V25H17.5045V19.073Z" fill="#6B6B6B"/>
<path d="M17.878 19.073H17.5045V25H17.878V19.073Z" fill="#6B6B6B"/>
<path d="M18.2515 19.073H17.878V25H18.2515V19.073Z" fill="#6B6B6B"/>
<path d="M18.625 19.073H18.2515V25H18.625V19.073Z" fill="#6B6B6B"/>
<path d="M18.8358 19.073H18.625V25H18.8358V19.073Z" fill="#6B6B6B"/>
<path d="M8.16792 6.98569H4.75153V43.2897H8.16792V6.98569Z" fill="#6B6B6B"/>
<path d="M8.54147 6.98569H8.16797V43.2897H8.54147V6.98569Z" fill="#6B6B6B"/>
<path d="M8.91494 6.98569H8.54144V43.2897H8.91494V6.98569Z" fill="#6B6B6B"/>
<path d="M9.28848 6.98569H8.91498V43.2897H9.28848V6.98569Z" fill="#6B6B6B"/>
<path d="M9.66195 6.98569H9.28845V43.2897H9.66195V6.98569Z" fill="#6B6B6B"/>
<path d="M10.0355 6.98569H9.66199V43.2897H10.0355V6.98569Z" fill="#6B6B6B"/>
<path d="M10.409 6.98569H10.0355V43.2897H10.409V6.98569Z" fill="#6B6B6B"/>
<path d="M10.7824 6.98569H10.4089V43.2897H10.7824V6.98569Z" fill="#6B6B6B"/>
<path d="M11.156 6.98569H10.7825V43.2897H11.156V6.98569Z" fill="#6B6B6B"/>
<path d="M11.5294 6.98569H11.1559V43.2897H11.5294V6.98569Z" fill="#6B6B6B"/>
<path d="M11.903 6.98569H11.5295V43.2897H11.903V6.98569Z" fill="#6B6B6B"/>
<path d="M12.276 6.98569H11.9025V43.2897H12.276V6.98569Z" fill="#6B6B6B"/>
<path d="M12.6495 6.98569H12.276V43.2897H12.6495V6.98569Z" fill="#6B6B6B"/>
<path d="M13.023 6.98569H12.6495V43.2897H13.023V6.98569Z" fill="#6B6B6B"/>
<path d="M13.3964 6.98569H13.0229V43.2897H13.3964V6.98569Z" fill="#6B6B6B"/>
<path d="M13.77 6.98569H13.3965V43.2897H13.77V6.98569Z" fill="#6B6B6B"/>
<path d="M14.1435 6.98569H13.77V43.2897H14.1435V6.98569Z" fill="#6B6B6B"/>
<path d="M14.517 6.98569H14.1435V43.2897H14.517V6.98569Z" fill="#6B6B6B"/>
<path d="M14.8905 6.98569H14.517V43.2897H14.8905V6.98569Z" fill="#6B6B6B"/>
<path d="M15.264 6.98569H14.8905V43.2897H15.264V6.98569Z" fill="#6B6B6B"/>
<path d="M15.6375 6.98569H15.264V43.2897H15.6375V6.98569Z" fill="#6B6B6B"/>
<path d="M16.011 6.98569H15.6375V43.2897H16.011V6.98569Z" fill="#6B6B6B"/>
<path d="M16.3845 6.98569H16.011V43.2897H16.3845V6.98569Z" fill="#6B6B6B"/>
<path d="M16.7575 6.98569H16.384V43.2897H16.7575V6.98569Z" fill="#6B6B6B"/>
<path d="M17.131 6.98569H16.7575V43.2897H17.131V6.98569Z" fill="#6B6B6B"/>
<path d="M17.5045 6.98569H17.131V43.2897H17.5045V6.98569Z" fill="#6B6B6B"/>
<path d="M17.878 6.98569H17.5045V43.2897H17.878V6.98569Z" fill="#6B6B6B"/>
<path d="M18.2515 6.98569H17.878V43.2897H18.2515V6.98569Z" fill="#6B6B6B"/>
<path d="M18.625 6.98569H18.2515V43.2897H18.625V6.98569Z" fill="#6B6B6B"/>
<path d="M18.9985 6.98569H18.625V43.2897H18.9985V6.98569Z" fill="#6B6B6B"/>
<path d="M19.372 6.98569H18.9985V43.2897H19.372V6.98569Z" fill="#6B6B6B"/>
<path d="M19.7455 6.98569H19.372V43.2897H19.7455V6.98569Z" fill="#6B6B6B"/>
<path d="M20.119 6.98569H19.7455V43.2897H20.119V6.98569Z" fill="#6B6B6B"/>
<path d="M20.4925 6.98569H20.119V43.2897H20.4925V6.98569Z" fill="#6B6B6B"/>
<path d="M20.866 6.98569H20.4925V43.2897H20.866V6.98569Z" fill="#6B6B6B"/>
<path d="M21.2395 6.98569H20.866V43.2897H21.2395V6.98569Z" fill="#6B6B6B"/>
<path d="M21.6125 6.98569H21.239V43.2897H21.6125V6.98569Z" fill="#6B6B6B"/>
<path d="M21.986 6.98569H21.6125V43.2897H21.986V6.98569Z" fill="#6B6B6B"/>
<path d="M22.3595 6.98569H21.986V43.2897H22.3595V6.98569Z" fill="#6B6B6B"/>
<path d="M22.733 6.98569H22.3595V43.2897H22.733V6.98569Z" fill="#6B6B6B"/>
<path d="M23.1065 6.98569H22.733V43.2897H23.1065V6.98569Z" fill="#6B6B6B"/>
<path d="M23.48 6.98569H23.1065V43.2897H23.48V6.98569Z" fill="#6B6B6B"/>
<path d="M23.8535 6.98569H23.48V43.2897H23.8535V6.98569Z" fill="#6B6B6B"/>
<path d="M24.227 6.98569H23.8535V43.2897H24.227V6.98569Z" fill="#6B6B6B"/>
<path d="M24.6005 6.98569H24.227V43.2897H24.6005V6.98569Z" fill="#6B6B6B"/>
<path d="M24.974 6.98569H24.6005V43.2897H24.974V6.98569Z" fill="#6B6B6B"/>
<path d="M25.3475 6.98569H24.974V43.2897H25.3475V6.98569Z" fill="#6B6B6B"/>
<path d="M25.721 6.98569H25.3475V43.2897H25.721V6.98569Z" fill="#6B6B6B"/>
<path d="M26.094 6.98569H25.7205V43.2897H26.094V6.98569Z" fill="#6B6B6B"/>
<path d="M26.4675 6.98569H26.094V43.2897H26.4675V6.98569Z" fill="#6B6B6B"/>
<path d="M26.841 6.98569H26.4675V43.2897H26.841V6.98569Z" fill="#6B6B6B"/>
<path d="M27.2145 6.98569H26.841V43.2897H27.2145V6.98569Z" fill="#6B6B6B"/>
<path d="M27.588 6.98569H27.2145V43.2897H27.588V6.98569Z" fill="#6B6B6B"/>
<path d="M27.9615 6.98569H27.588V43.2897H27.9615V6.98569Z" fill="#6B6B6B"/>
<path d="M28.335 6.98569H27.9615V43.2897H28.335V6.98569Z" fill="#6B6B6B"/>
<path d="M28.7085 6.98569H28.335V43.2897H28.7085V6.98569Z" fill="#6B6B6B"/>
<path d="M29.082 6.98569H28.7085V43.2897H29.082V6.98569Z" fill="#6B6B6B"/>
<path d="M29.4555 6.98569H29.082V43.2897H29.4555V6.98569Z" fill="#6B6B6B"/>
<path d="M29.829 6.98569H29.4555V43.2897H29.829V6.98569Z" fill="#6B6B6B"/>
<path d="M30.2025 6.98569H29.829V43.2897H30.2025V6.98569Z" fill="#6B6B6B"/>
<path d="M30.5755 6.98569H30.202V43.2897H30.5755V6.98569Z" fill="#6B6B6B"/>
<path d="M30.949 6.98569H30.5755V43.2897H30.949V6.98569Z" fill="#6B6B6B"/>
<path d="M31.3225 6.98569H30.949V43.2897H31.3225V6.98569Z" fill="#6B6B6B"/>
<path d="M31.696 6.98569H31.3225V43.2897H31.696V6.98569Z" fill="#6B6B6B"/>
<path d="M32.0695 6.98569H31.696V43.2897H32.0695V6.98569Z" fill="#6B6B6B"/>
<path d="M32.443 6.98569H32.0695V43.2897H32.443V6.98569Z" fill="#6B6B6B"/>
<path d="M32.8165 6.98569H32.443V43.2897H32.8165V6.98569Z" fill="#6B6B6B"/>
<path d="M33.19 6.98569H32.8165V43.2897H33.19V6.98569Z" fill="#6B6B6B"/>
<path d="M33.5635 6.98569H33.19V43.2897H33.5635V6.98569Z" fill="#6B6B6B"/>
<path d="M33.937 6.98569H33.5635V43.2897H33.937V6.98569Z" fill="#6B6B6B"/>
<path d="M34.3105 6.98569H33.937V43.2897H34.3105V6.98569Z" fill="#6B6B6B"/>
<path d="M34.684 6.98569H34.3105V43.2897H34.684V6.98569Z" fill="#6B6B6B"/>
<path d="M35.057 6.98569H34.6835V43.2897H35.057V6.98569Z" fill="#6B6B6B"/>
<path d="M35.4305 6.98569H35.057V43.2897H35.4305V6.98569Z" fill="#6B6B6B"/>
<path d="M35.804 6.98569H35.4305V43.2897H35.804V6.98569Z" fill="#6B6B6B"/>
<path d="M36.1775 6.98569H35.804V43.2897H36.1775V6.98569Z" fill="#6B6B6B"/>
<path d="M36.5511 6.98569H36.1776V43.2897H36.5511V6.98569Z" fill="#6B6B6B"/>
<path d="M36.9245 6.98569H36.551V43.2897H36.9245V6.98569Z" fill="#6B6B6B"/>
<path d="M37.298 6.98569H36.9245V43.2897H37.298V6.98569Z" fill="#6B6B6B"/>
<path d="M37.6715 6.98569H37.298V43.2897H37.6715V6.98569Z" fill="#6B6B6B"/>
<path d="M45.2484 6.98569H37.6715V43.2897H45.2484V6.98569Z" fill="#6B6B6B"/>
</g>
</g>
<defs>
<clipPath id="clip0_64_250">
<rect width="50" height="50" fill="white"/>
</clipPath>
</defs>
</svg>
